<svg width="21" height="20" viewBox="0 0 21 20" fill="none" xmlns="http://www.w3.org/2000/svg">
<path fill-rule="evenodd" clip-rule="evenodd" d="M10.3438 19.6875C15.7803 19.6875 20.1875 15.2803 20.1875 9.84375C20.1875 4.4072 15.7803 0 10.3438 0C4.9072 0 0.5 4.4072 0.5 9.84375C0.5 15.2803 4.9072 19.6875 10.3438 19.6875ZM15.3321 6.5547C15.6384 6.09517 15.5142 5.4743 15.0547 5.16795C14.5952 4.8616 13.9743 4.98577 13.6679 5.4453L9.34457 11.9304L7.20711 9.79289C6.81658 9.40237 6.18342 9.40237 5.79289 9.79289C5.40237 10.1834 5.40237 10.8166 5.79289 11.2071L8.79289 14.2071C9.00474 14.419 9.3004 14.5247 9.59854 14.4951C9.89667 14.4656 10.1659 14.304 10.3321 14.0547L15.3321 6.5547Z" fill="#434190"/>
</svg>
