<svg fill="none" xmlns="http://www.w3.org/2000/svg" viewBox="0 0 62 62">
  <path fill-rule="evenodd" clip-rule="evenodd" d="M9.784 6.309C3.276 7.56-.986 13.85.266 20.359L6.31 51.783c1.251 6.508 7.542 10.77 14.05 9.518l31.424-6.042c6.508-1.252 10.77-7.542 9.518-14.05L55.26 9.783C54.007 3.276 47.717-.986 41.209.266L9.783 6.31zM23.233 9.68c2.185-1.15 4.668-1.63 7.122-1.677 2.119-.033 4.255.231 6.275.885a11.784 11.784 0 014.445 2.57c1.786 1.643 3.018 3.813 3.785 6.098.404 1.173.667 2.388.866 3.611l.058.37c.101.63.202 1.261.207 1.9a.788.788 0 01-.083.438c-.037.06-.11.087-.184.114-.045.017-.089.033-.125.057h-8.372a1.047 1.047 0 01-.503-.073c-.02-.04-.044-.08-.07-.12-.054-.085-.109-.17-.104-.275-.038-.345-.07-.692-.101-1.038-.066-.717-.132-1.435-.253-2.146-.19-1.06-.501-2.157-1.232-2.98-.636-.727-1.574-1.101-2.505-1.27-1.302-.22-2.673-.256-3.942.158a4.54 4.54 0 00-2.522 1.995c-.759 1.305-1.075 2.81-1.255 4.294-.231 1.987-.266 3.979-.29 5.974-.018 2.433-.013 4.874.079 7.296.032.815.076 1.603.145 2.41l.036.387.013.14c.13 1.18.298 2.373.727 3.488.043.107.104.253.142.333A4.78 4.78 0 0027 44.4c.804.644 1.842.903 2.855.958.985.048 1.982.008 2.948-.196.828-.176 1.645-.557 2.186-1.227.666-.815.953-1.858 1.162-2.87l.003-.015c.03-.16.066-.35.087-.489.1-.671.167-1.347.203-2.025.01-.078.012-.158.014-.238.006-.182.012-.365.102-.528.04-.06.113-.087.186-.114.044-.017.088-.033.125-.057h8.54c.162-.026.305.04.447.108.057.041.077.117.097.193.012.046.024.092.044.13-.17 1.837-.37 3.686-.898 5.461-.659 2.251-1.813 4.387-3.504 6.03-1.628 1.602-3.717 2.688-5.919 3.26-2.284.608-4.674.69-7.023.534a4.598 4.598 0 01-.283-.025c-1.948-.21-3.873-.755-5.592-1.707-1.97-1.079-3.622-2.697-4.816-4.592-1.047-1.623-1.699-3.465-2.172-5.327a26.466 26.466 0 01-.713-4.715c-.091-1.782-.083-3.566-.074-5.35l.005-1.042.01-1.498c.01-1.547.02-3.095.065-4.642.024-1.23.235-2.447.487-3.649.51-2.413 1.397-4.773 2.81-6.806.778-1.04 1.695-1.97 2.669-2.825.656-.585 1.406-1.05 2.182-1.456z" fill="#ED64A6"/>
</svg>
